<svg width="215" height="36" viewBox="0 0 215 36" fill="none" xmlns="http://www.w3.org/2000/svg">
<path d="M6.97542 5.894V29.54H18.3154L17.6014 35H0.0874221V5.894H6.97542ZM40.7454 35H34.9914L34.6974 32.186C33.0734 34.538 30.8194 35.714 27.9354 35.714C25.8914 35.714 24.3374 35.098 23.2734 33.866C22.2374 32.634 21.7194 30.912 21.7194 28.7V12.698H28.3554V27.86C28.3554 28.952 28.5234 29.722 28.8594 30.17C29.2234 30.59 29.7694 30.8 30.4974 30.8C31.8974 30.8 33.1014 29.932 34.1094 28.196V12.698H40.7454V35ZM53.6505 12.698V35H47.0145V12.698H53.6505ZM50.2905 0.937998C51.4385 0.937998 52.3765 1.302 53.1045 2.03C53.8605 2.73 54.2385 3.626 54.2385 4.718C54.2385 5.81 53.8605 6.72 53.1045 7.448C52.3765 8.148 51.4385 8.498 50.2905 8.498C49.1425 8.498 48.2045 8.148 47.4765 7.448C46.7485 6.72 46.3845 5.81 46.3845 4.718C46.3845 3.626 46.7485 2.73 47.4765 2.03C48.2045 1.302 49.1425 0.937998 50.2905 0.937998ZM67.7721 11.984C69.3681 11.984 70.8661 12.222 72.2661 12.698C73.6661 13.174 74.8981 13.846 75.9621 14.714L73.5261 18.452C71.7061 17.304 69.8721 16.73 68.0241 16.73C67.1561 16.73 66.4841 16.884 66.0081 17.192C65.5601 17.472 65.3361 17.878 65.3361 18.41C65.3361 18.83 65.4341 19.18 65.6301 19.46C65.8541 19.712 66.2881 19.978 66.9321 20.258C67.5761 20.538 68.5701 20.874 69.9141 21.266C72.2381 21.938 73.9601 22.82 75.0801 23.912C76.2281 24.976 76.8021 26.46 76.8021 28.364C76.8021 29.876 76.3681 31.192 75.5001 32.312C74.6321 33.404 73.4421 34.244 71.9301 34.832C70.4181 35.42 68.7381 35.714 66.8901 35.714C65.0141 35.714 63.2641 35.42 61.6401 34.832C60.0441 34.244 58.6861 33.432 57.5661 32.396L60.8001 28.784C62.6761 30.24 64.6501 30.968 66.7221 30.968C67.7301 30.968 68.5141 30.786 69.0741 30.422C69.6621 30.058 69.9561 29.54 69.9561 28.868C69.9561 28.336 69.8441 27.916 69.6201 27.608C69.3961 27.3 68.9621 27.02 68.3181 26.768C67.6741 26.488 66.6521 26.152 65.2521 25.76C63.0401 25.116 61.3881 24.22 60.2961 23.072C59.2041 21.924 58.6581 20.496 58.6581 18.788C58.6581 17.5 59.0221 16.352 59.7501 15.344C60.5061 14.308 61.5701 13.496 62.9421 12.908C64.3421 12.292 65.9521 11.984 67.7721 11.984ZM104.3 5.18C106.12 5.18 107.73 5.446 109.13 5.978C110.558 6.51 111.902 7.308 113.162 8.372L109.886 12.278C109.018 11.606 108.164 11.102 107.324 10.766C106.484 10.43 105.588 10.262 104.636 10.262C102.676 10.262 101.122 11.088 99.9736 12.74C98.8536 14.392 98.2936 16.94 98.2936 20.384C98.2936 23.772 98.8536 26.292 99.9736 27.944C101.122 29.568 102.704 30.38 104.72 30.38C105.784 30.38 106.75 30.184 107.618 29.792C108.486 29.372 109.424 28.784 110.432 28.028L113.498 31.976C112.406 33.068 111.076 33.964 109.508 34.664C107.968 35.364 106.26 35.714 104.384 35.714C101.696 35.714 99.3576 35.126 97.3696 33.95C95.3816 32.774 93.8276 31.038 92.7076 28.742C91.6156 26.418 91.0696 23.632 91.0696 20.384C91.0696 17.22 91.6296 14.49 92.7496 12.194C93.8976 9.898 95.4656 8.162 97.4536 6.986C99.4696 5.782 101.752 5.18 104.3 5.18ZM134.81 28.532C134.81 29.372 134.922 29.988 135.146 30.38C135.398 30.772 135.79 31.066 136.322 31.262L134.936 35.588C133.564 35.476 132.444 35.182 131.576 34.706C130.708 34.202 130.036 33.418 129.56 32.354C128.104 34.594 125.864 35.714 122.84 35.714C120.628 35.714 118.864 35.07 117.548 33.782C116.232 32.494 115.574 30.814 115.574 28.742C115.574 26.306 116.47 24.444 118.262 23.156C120.054 21.868 122.644 21.224 126.032 21.224H128.3V20.258C128.3 18.942 128.02 18.046 127.46 17.57C126.9 17.066 125.92 16.814 124.52 16.814C123.792 16.814 122.91 16.926 121.874 17.15C120.838 17.346 119.774 17.626 118.682 17.99L117.17 13.622C118.57 13.09 119.998 12.684 121.454 12.404C122.938 12.124 124.31 11.984 125.57 11.984C128.762 11.984 131.1 12.642 132.584 13.958C134.068 15.274 134.81 17.248 134.81 19.88V28.532ZM124.772 30.968C126.284 30.968 127.46 30.254 128.3 28.826V24.878H126.662C125.15 24.878 124.016 25.144 123.26 25.676C122.532 26.208 122.168 27.034 122.168 28.154C122.168 29.05 122.392 29.75 122.84 30.254C123.316 30.73 123.96 30.968 124.772 30.968ZM153.241 12.068C154.053 12.068 154.795 12.166 155.467 12.362L154.417 18.788C153.577 18.592 152.905 18.494 152.401 18.494C151.085 18.494 150.077 18.956 149.377 19.88C148.705 20.776 148.173 22.134 147.781 23.954V35H141.145V12.698H146.941L147.487 17.024C147.991 15.484 148.747 14.28 149.755 13.412C150.791 12.516 151.953 12.068 153.241 12.068ZM164.975 35.714C163.043 35.714 161.531 35.168 160.439 34.076C159.375 32.956 158.843 31.374 158.843 29.33V3.836L165.479 3.122V29.078C165.479 30.002 165.857 30.464 166.613 30.464C167.005 30.464 167.369 30.394 167.705 30.254L169.007 34.958C167.803 35.462 166.459 35.714 164.975 35.714ZM182.026 11.984C185.442 11.984 188.116 13.034 190.048 15.134C191.98 17.206 192.946 20.118 192.946 23.87C192.946 26.25 192.498 28.336 191.602 30.128C190.734 31.892 189.474 33.264 187.822 34.244C186.198 35.224 184.266 35.714 182.026 35.714C178.638 35.714 175.964 34.678 174.004 32.606C172.072 30.506 171.106 27.58 171.106 23.828C171.106 21.448 171.54 19.376 172.408 17.612C173.304 15.82 174.564 14.434 176.188 13.454C177.84 12.474 179.786 11.984 182.026 11.984ZM182.026 16.856C180.682 16.856 179.674 17.43 179.002 18.578C178.33 19.698 177.994 21.448 177.994 23.828C177.994 26.264 178.316 28.042 178.96 29.162C179.632 30.282 180.654 30.842 182.026 30.842C183.37 30.842 184.378 30.282 185.05 29.162C185.722 28.014 186.058 26.25 186.058 23.87C186.058 21.434 185.722 19.656 185.05 18.536C184.406 17.416 183.398 16.856 182.026 16.856ZM205.798 11.984C207.394 11.984 208.892 12.222 210.292 12.698C211.692 13.174 212.924 13.846 213.988 14.714L211.552 18.452C209.732 17.304 207.898 16.73 206.05 16.73C205.182 16.73 204.51 16.884 204.034 17.192C203.586 17.472 203.362 17.878 203.362 18.41C203.362 18.83 203.46 19.18 203.656 19.46C203.88 19.712 204.314 19.978 204.958 20.258C205.602 20.538 206.596 20.874 207.94 21.266C210.264 21.938 211.986 22.82 213.106 23.912C214.254 24.976 214.828 26.46 214.828 28.364C214.828 29.876 214.394 31.192 213.526 32.312C212.658 33.404 211.468 34.244 209.956 34.832C208.444 35.42 206.764 35.714 204.916 35.714C203.04 35.714 201.29 35.42 199.666 34.832C198.07 34.244 196.712 33.432 195.592 32.396L198.826 28.784C200.702 30.24 202.676 30.968 204.748 30.968C205.756 30.968 206.54 30.786 207.1 30.422C207.688 30.058 207.982 29.54 207.982 28.868C207.982 28.336 207.87 27.916 207.646 27.608C207.422 27.3 206.988 27.02 206.344 26.768C205.7 26.488 204.678 26.152 203.278 25.76C201.066 25.116 199.414 24.22 198.322 23.072C197.23 21.924 196.684 20.496 196.684 18.788C196.684 17.5 197.048 16.352 197.776 15.344C198.532 14.308 199.596 13.496 200.968 12.908C202.368 12.292 203.978 11.984 205.798 11.984Z" fill="black"/>
</svg>
